<svg width="19" height="18" viewBox="0 0 19 18" fill="none" xmlns="http://www.w3.org/2000/svg">
<path fill-rule="evenodd" clip-rule="evenodd" d="M4.25 3.75C3.83579 3.75 3.5 4.08579 3.5 4.5V15C3.5 15.4142 3.83579 15.75 4.25 15.75H14.75C15.1642 15.75 15.5 15.4142 15.5 15V4.5C15.5 4.08579 15.1642 3.75 14.75 3.75H4.25ZM2 4.5C2 3.25736 3.00736 2.25 4.25 2.25H14.75C15.9926 2.25 17 3.25736 17 4.5V15C17 16.2426 15.9926 17.25 14.75 17.25H4.25C3.00736 17.25 2 16.2426 2 15V4.5Z" fill="#707070"/>
<path fill-rule="evenodd" clip-rule="evenodd" d="M12.5 0.75C12.9142 0.75 13.25 1.08579 13.25 1.5V4.5C13.25 4.91421 12.9142 5.25 12.5 5.25C12.0858 5.25 11.75 4.91421 11.75 4.5V1.5C11.75 1.08579 12.0858 0.75 12.5 0.75Z" fill="#707070"/>
<path fill-rule="evenodd" clip-rule="evenodd" d="M6.5 0.75C6.91421 0.75 7.25 1.08579 7.25 1.5V4.5C7.25 4.91421 6.91421 5.25 6.5 5.25C6.08579 5.25 5.75 4.91421 5.75 4.5V1.5C5.75 1.08579 6.08579 0.75 6.5 0.75Z" fill="#707070"/>
<path fill-rule="evenodd" clip-rule="evenodd" d="M2 7.5C2 7.08579 2.33579 6.75 2.75 6.75H16.25C16.6642 6.75 17 7.08579 17 7.5C17 7.91421 16.6642 8.25 16.25 8.25H2.75C2.33579 8.25 2 7.91421 2 7.5Z" fill="#707070"/>
</svg>
