<svg width="20" height="26" viewBox="0 0 20 26" fill="none" xmlns="http://www.w3.org/2000/svg">
<path fill-rule="evenodd" clip-rule="evenodd" d="M3.33333 4.6189C3.03865 4.6189 2.75603 4.74061 2.54766 4.95724C2.33929 5.17387 2.22222 5.46769 2.22222 5.77406V21.9462C2.22222 22.2526 2.33929 22.5464 2.54766 22.763C2.75603 22.9797 3.03865 23.1014 3.33333 23.1014H16.6667C16.9614 23.1014 17.244 22.9797 17.4523 22.763C17.6607 22.5464 17.7778 22.2526 17.7778 21.9462V5.77406C17.7778 5.46769 17.6607 5.17387 17.4523 4.95724C17.244 4.74061 16.9614 4.6189 16.6667 4.6189H14.4444C13.8308 4.6189 13.3333 4.10172 13.3333 3.46375C13.3333 2.82577 13.8308 2.30859 14.4444 2.30859H16.6667C17.5507 2.30859 18.3986 2.6737 19.0237 3.3236C19.6488 3.9735 20 4.85496 20 5.77406V21.9462C20 22.8653 19.6488 23.7468 19.0237 24.3967C18.3986 25.0466 17.5507 25.4117 16.6667 25.4117H3.33333C2.44928 25.4117 1.60143 25.0466 0.976311 24.3967C0.351189 23.7468 0 22.8653 0 21.9462V5.77406C0 4.85496 0.351189 3.97351 0.976311 3.3236C1.60143 2.6737 2.44928 2.30859 3.33333 2.30859H5.55556C6.16921 2.30859 6.66667 2.82577 6.66667 3.46375C6.66667 4.10172 6.16921 4.6189 5.55556 4.6189H3.33333Z" fill="black"/>
<path fill-rule="evenodd" clip-rule="evenodd" d="M4.44531 2.31031C4.44531 1.03436 5.44024 0 6.66753 0H13.3342C14.5615 0 15.5564 1.03436 15.5564 2.31031V4.62062C15.5564 5.89657 14.5615 6.93093 13.3342 6.93093H6.66753C5.44024 6.93093 4.44531 5.89657 4.44531 4.62062V2.31031ZM13.3342 2.31031H6.66753V4.62062H13.3342V2.31031Z" fill="black"/>
</svg>
