<svg width="21" height="26" viewBox="0 0 21 26" fill="none" xmlns="http://www.w3.org/2000/svg">
<path fill-rule="evenodd" clip-rule="evenodd" d="M3.83333 4.61988C3.53865 4.61988 3.25603 4.74158 3.04766 4.95822C2.83929 5.17485 2.72222 5.46867 2.72222 5.77503V21.9472C2.72222 22.2536 2.83929 22.5474 3.04766 22.764C3.25603 22.9806 3.53865 23.1024 3.83333 23.1024H17.1667C17.4614 23.1024 17.744 22.9806 17.9523 22.764C18.1607 22.5474 18.2778 22.2536 18.2778 21.9472V5.77503C18.2778 5.46867 18.1607 5.17485 17.9523 4.95822C17.744 4.74158 17.4614 4.61988 17.1667 4.61988H14.9444C14.3308 4.61988 13.8333 4.1027 13.8333 3.46472C13.8333 2.82675 14.3308 2.30957 14.9444 2.30957H17.1667C18.0507 2.30957 18.8986 2.67468 19.5237 3.32458C20.1488 3.97448 20.5 4.85594 20.5 5.77503V21.9472C20.5 22.8663 20.1488 23.7478 19.5237 24.3977C18.8986 25.0476 18.0507 25.4127 17.1667 25.4127H3.83333C2.94928 25.4127 2.10143 25.0476 1.47631 24.3977C0.851189 23.7477 0.5 22.8663 0.5 21.9472V5.77503C0.5 4.85594 0.851189 3.97448 1.47631 3.32458C2.10143 2.67468 2.94928 2.30957 3.83333 2.30957H6.05556C6.66921 2.30957 7.16667 2.82675 7.16667 3.46472C7.16667 4.1027 6.66921 4.61988 6.05556 4.61988H3.83333Z" fill="white"/>
<path fill-rule="evenodd" clip-rule="evenodd" d="M4.94531 2.31031C4.94531 1.03436 5.94024 0 7.16753 0H13.8342C15.0615 0 16.0564 1.03436 16.0564 2.31031V4.62062C16.0564 5.89657 15.0615 6.93093 13.8342 6.93093H7.16753C5.94024 6.93093 4.94531 5.89657 4.94531 4.62062V2.31031ZM13.8342 2.31031H7.16753V4.62062H13.8342V2.31031Z" fill="white"/>
</svg>
