<svg width="22" height="23" viewBox="0 0 22 23" fill="none" xmlns="http://www.w3.org/2000/svg">
<path d="M1 4.94941C1 4.06824 1.33865 3.22316 1.94144 2.60008C2.54424 1.977 3.3618 1.62695 4.21429 1.62695H17.7857C18.6382 1.62695 19.4558 1.977 20.0586 2.60008C20.6614 3.22316 21 4.06824 21 4.94941V13.8093C21 14.6905 20.6614 15.5356 20.0586 16.1586C19.4558 16.7817 18.6382 17.1318 17.7857 17.1318H12.345L7.61429 21.2775C6.69571 22.0822 5.28571 21.4081 5.28571 20.1626V17.1318H4.21429C3.3618 17.1318 2.54424 16.7817 1.94144 16.1586C1.33865 15.5356 1 14.6905 1 13.8093V4.94941ZM4.21429 2.36528C3.55124 2.36528 2.91536 2.63753 2.44652 3.12215C1.97768 3.60677 1.71429 4.26406 1.71429 4.94941V13.8093C1.71429 14.4947 1.97768 15.1519 2.44652 15.6366C2.91536 16.1212 3.55124 16.3934 4.21429 16.3934H5.64286C5.73758 16.3934 5.82842 16.4323 5.8954 16.5016C5.96237 16.5708 6 16.6647 6 16.7626V20.1626C6.00004 20.3006 6.03828 20.4358 6.11022 20.5521C6.18216 20.6684 6.28478 20.761 6.40599 20.819C6.52719 20.877 6.66191 20.8979 6.79425 20.8793C6.92658 20.8608 7.05102 20.8034 7.15286 20.7141L11.9836 16.4813C12.048 16.4247 12.1297 16.3936 12.2143 16.3934H17.7857C18.4488 16.3934 19.0846 16.1212 19.5535 15.6366C20.0223 15.1519 20.2857 14.4947 20.2857 13.8093V4.94941C20.2857 4.26406 20.0223 3.60677 19.5535 3.12215C19.0846 2.63753 18.4488 2.36528 17.7857 2.36528H4.21429Z" fill="black" stroke="black" stroke-width="1.5"/>
</svg>
