<svg width="154" height="24" viewBox="0 0 154 24" fill="none" xmlns="http://www.w3.org/2000/svg">
<path d="M0.5 24V20.0312L8.65625 5.625H0.5V0.3125H15.4375V5.21875L7.89062 18.6875H15.4375V24H0.5ZM29.375 15.3906V24H23.3281V15.3906L16.25 0.3125H22.8125L26.3281 9.82812L29.875 0.3125H36.375L29.375 15.3906ZM53.7656 24L48.6406 15.6094L43.7812 24H37.0312L45.3125 11.3906L37.9844 0.3125H44.8438L48.9062 7.07812L52.8438 0.3125H59.6562L52.4219 11.5156L60.6094 24H53.7656ZM85.5312 24H80.2188L76.6719 8.67188H76.6094L73.0469 24H67.5781L61.4688 0.3125H67.6094L70.7812 15.7188H70.8438L74.3281 0.3125H78.9688L82.3906 15.7812H82.4531L85.6875 0.3125H91.8125L85.5312 24ZM94.5156 24V0.3125H107.672V5.625H100.312V9.3125H107.438V14.625H100.312V18.6875H107.672V24H94.5156ZM126.688 24L125.531 20.5781H117.312L116.062 24H109.562L119.062 0.3125H123.828L133.25 24H126.688ZM121.5 7.6875H121.406L118.969 15.7812H123.938L121.5 7.6875ZM147 24L141.531 16.3594H141.469V24H135.672V0.3125H143.156C143.948 0.3125 144.583 0.328125 145.062 0.359375C145.771 0.390625 146.406 0.458333 146.969 0.5625C148.385 0.802083 149.547 1.28646 150.453 2.01562C152.401 3.57812 153.375 5.73438 153.375 8.48438C153.375 10.3698 152.859 11.9896 151.828 13.3438C150.755 14.7812 149.307 15.6458 147.484 15.9375L153.906 24H147ZM147.578 8.82812C147.578 7.73438 147.188 6.91146 146.406 6.35938C145.729 5.86979 144.818 5.625 143.672 5.625H141.469V12.2188H143.609C146.255 12.2188 147.578 11.0885 147.578 8.82812Z" fill="white"/>
</svg>
