<svg width="22" height="22" viewBox="0 0 22 22" fill="none" xmlns="http://www.w3.org/2000/svg">
<path d="M14.6328 0.376953C14.9365 0.376995 15.2314 0.438427 15.5156 0.55957H15.5166L15.7207 0.65918C15.9173 0.76571 16.0935 0.895243 16.2471 1.04883L20.5781 5.37988L20.7246 5.54199C20.8625 5.71055 20.9765 5.90034 21.0664 6.11035L21.1465 6.32617C21.2154 6.54331 21.25 6.76626 21.25 6.99414V18.6074C21.2499 19.245 21.0339 19.7902 20.5996 20.2256C20.1649 20.6613 19.619 20.8767 18.9805 20.876V20.877H3.01953C2.38201 20.8768 1.83698 20.661 1.40234 20.2266C0.967589 19.7918 0.750947 19.2459 0.75 18.6074V2.64648C0.750106 2.00862 0.966747 1.46298 1.40234 1.02832L1.57031 0.875977C1.97502 0.543455 2.4621 0.377782 3.01953 0.376953H14.6328ZM3.01953 2.12695C2.89513 2.12702 2.79768 2.1559 2.71777 2.20898L2.64258 2.26953C2.55046 2.36165 2.5001 2.4805 2.5 2.64648V18.6084C2.50004 18.7734 2.55022 18.892 2.64258 18.9844L2.71777 19.0449C2.79768 19.098 2.89514 19.1269 3.01953 19.127H18.9814C19.1465 19.1269 19.2651 19.0767 19.3574 18.9844C19.4498 18.892 19.5 18.7734 19.5 18.6084V7.12695H15.7598C15.4081 7.1269 15.1018 7.00814 14.8604 6.76562C14.6195 6.5237 14.501 6.21775 14.5 5.86719V2.12695H3.01953ZM16 14.127C16.2404 14.127 16.4541 14.2099 16.623 14.3789L16.6826 14.4443C16.8117 14.6017 16.875 14.7917 16.875 15.002C16.875 15.2122 16.8117 15.4022 16.6826 15.5596L16.623 15.625C16.4541 15.794 16.2404 15.877 16 15.877H6C5.75917 15.877 5.54461 15.7938 5.37598 15.624C5.20859 15.4553 5.12612 15.2422 5.125 15.0029C5.12392 14.7617 5.20761 14.5471 5.37793 14.3779C5.54722 14.21 5.76031 14.127 6 14.127H16ZM16 9.75195C16.2404 9.75195 16.454 9.83491 16.623 10.0039C16.792 10.1729 16.875 10.3866 16.875 10.627C16.875 10.8673 16.792 11.081 16.623 11.25C16.4541 11.419 16.2404 11.502 16 11.502H6C5.78911 11.502 5.59874 11.4384 5.44141 11.3086L5.37598 11.249C5.20859 11.0803 5.12612 10.8672 5.125 10.6279C5.12392 10.3867 5.20761 10.1721 5.37793 10.0029L5.44336 9.94434C5.60088 9.8158 5.79016 9.75195 6 9.75195H16ZM10.375 5.37695C10.6154 5.37695 10.8291 5.45991 10.998 5.62891L11.0576 5.69434C11.1867 5.85172 11.25 6.04169 11.25 6.25195C11.25 6.46221 11.1867 6.65219 11.0576 6.80957L10.998 6.875C10.8291 7.044 10.6154 7.12695 10.375 7.12695H6C5.78911 7.12695 5.59874 7.0634 5.44141 6.93359L5.37598 6.87402C5.20859 6.70527 5.12612 6.49219 5.125 6.25293C5.12392 6.01173 5.20761 5.79706 5.37793 5.62793C5.54722 5.45999 5.76031 5.37695 6 5.37695H10.375Z" fill="black" stroke="black" stroke-width="0.5"/>
</svg>
