<svg width="20" height="19" viewBox="0 0 20 19" fill="none" xmlns="http://www.w3.org/2000/svg">
<path fill-rule="evenodd" clip-rule="evenodd" d="M19.9347 1.14585C20.0672 0.845124 20.0005 0.487866 19.7346 0.244077C19.5569 0.0812239 19.324 -0.000135198 19.0912 1.57435e-07C18.9904 -4.13769e-05 18.8889 0.0152717 18.7906 0.0468079L0.608776 5.88013C0.256958 5.99301 0.0159546 6.29131 0.000760283 6.63271C-0.0144341 6.97411 0.19926 7.28942 0.539878 7.42819L8.40217 10.6313L11.8965 17.8384C12.0479 18.1507 12.3919 18.3466 12.7643 18.3326C13.1368 18.3187 13.4622 18.0978 13.5853 17.7753L19.9347 1.14585ZM15.6325 2.82583L3.3737 6.75885L8.89014 9.00629L15.6325 2.82583ZM10.1755 10.1851L16.9164 4.00592L12.6267 15.2408L10.1755 10.1851Z" fill="black"/>
</svg>
