<svg width="21" height="20" viewBox="0 0 21 20" fill="none" xmlns="http://www.w3.org/2000/svg">
<path fill-rule="evenodd" clip-rule="evenodd" d="M20.4347 1.97886C20.5672 1.67813 20.5005 1.32087 20.2346 1.07709C20.0569 0.914232 19.824 0.832873 19.5912 0.833008C19.4904 0.832966 19.3889 0.84828 19.2906 0.879816L1.10878 6.71314C0.756958 6.82601 0.515955 7.12432 0.50076 7.46572C0.485566 7.80712 0.69926 8.12242 1.03988 8.26119L8.90217 11.4644L12.3965 18.6715C12.5479 18.9837 12.8919 19.1796 13.2643 19.1656C13.6368 19.1517 13.9622 18.9308 14.0853 18.6083L20.4347 1.97886ZM16.1325 3.65884L3.8737 7.59186L9.39014 9.83929L16.1325 3.65884ZM10.6755 11.0181L17.4164 4.83893L13.1267 16.0738L10.6755 11.0181Z" fill="white"/>
</svg>
