<svg width="21" height="20" viewBox="0 0 21 20" fill="none" xmlns="http://www.w3.org/2000/svg">
<path fill-rule="evenodd" clip-rule="evenodd" d="M3.5 2C2.94772 2 2.5 2.44772 2.5 3V17C2.5 17.5523 2.94772 18 3.5 18H17.5C18.0523 18 18.5 17.5523 18.5 17V3C18.5 2.44772 18.0523 2 17.5 2H3.5ZM0.5 3C0.5 1.34315 1.84315 0 3.5 0H17.5C19.1569 0 20.5 1.34315 20.5 3V17C20.5 18.6569 19.1569 20 17.5 20H3.5C1.84315 20 0.5 18.6569 0.5 17V3ZM10.5 5C11.0523 5 11.5 5.44772 11.5 6V9H14.5C15.0523 9 15.5 9.44771 15.5 10C15.5 10.5523 15.0523 11 14.5 11H11.5V14C11.5 14.5523 11.0523 15 10.5 15C9.94771 15 9.5 14.5523 9.5 14V11H6.5C5.94772 11 5.5 10.5523 5.5 10C5.5 9.44771 5.94772 9 6.5 9H9.5V6C9.5 5.44772 9.94771 5 10.5 5Z" fill="white"/>
</svg>
