<svg width="22" height="23" viewBox="0 0 22 23" fill="none" xmlns="http://www.w3.org/2000/svg">
<path d="M1.12613 13.0931L9.53384 21.5008C9.57372 21.5408 9.6211 21.5725 9.67325 21.5942C9.72541 21.6158 9.78133 21.627 9.8378 21.627C9.89427 21.627 9.95018 21.6158 10.0023 21.5942C10.0545 21.5725 10.1019 21.5408 10.1418 21.5008L20.8746 10.7679C20.9145 10.728 20.9461 10.6806 20.9676 10.6284C20.9891 10.5763 21.0001 10.5204 21 10.464V4.38144L20.9966 4.32992L21 4.20285C21 3.8539 20.929 3.5086 20.7915 3.1879C20.654 2.8672 20.4527 2.57779 20.1999 2.33722C19.9472 2.09666 19.6482 1.90996 19.321 1.78845C18.9939 1.66695 18.6456 1.61317 18.297 1.63039L18.2455 1.62695H12.1613C12.0479 1.6272 11.9393 1.67227 11.859 1.75231L1.12613 12.4852C1.08615 12.5251 1.05443 12.5725 1.03278 12.6246C1.01114 12.6768 1 12.7327 1 12.7892C1 12.8456 1.01114 12.9015 1.03278 12.9537C1.05443 13.0059 1.08615 13.0532 1.12613 13.0931Z" stroke="black" stroke-width="2"/>
<path d="M10.6914 16.2238V8.49609" stroke="black" stroke-width="1.5" stroke-linecap="round"/>
<path d="M7.86606 11.7518C8.02729 11.913 8.11787 12.1317 8.11787 12.3597C8.11787 12.5877 8.02729 12.8064 7.86606 12.9676C7.70484 13.1289 7.48616 13.2194 7.25815 13.2194C7.03014 13.2194 6.81147 13.1289 6.65024 12.9676C6.48901 12.8064 6.39844 12.5877 6.39844 12.3597C6.39844 12.1317 6.48901 11.913 6.65024 11.7518C6.81147 11.5906 7.03014 11.5 7.25815 11.5C7.48616 11.5 7.70484 11.5906 7.86606 11.7518ZM14.7351 11.7518C14.8963 11.913 14.9869 12.1317 14.9869 12.3597C14.9869 12.5877 14.8963 12.8064 14.7351 12.9676C14.5739 13.1289 14.3552 13.2194 14.1272 13.2194C13.8992 13.2194 13.6805 13.1289 13.5193 12.9676C13.4395 12.8878 13.3761 12.793 13.3329 12.6887C13.2897 12.5844 13.2675 12.4726 13.2675 12.3597C13.2675 12.2468 13.2897 12.135 13.3329 12.0307C13.3761 11.9264 13.4395 11.8316 13.5193 11.7518C13.5991 11.672 13.6939 11.6086 13.7982 11.5654C13.9025 11.5222 14.0143 11.5 14.1272 11.5C14.2401 11.5 14.3519 11.5222 14.4562 11.5654C14.5605 11.6086 14.6553 11.672 14.7351 11.7518Z" stroke="black" stroke-width="1.5"/>
</svg>
