<svg width="30" height="31" viewBox="0 0 30 31" fill="none" xmlns="http://www.w3.org/2000/svg">
<g filter="url(#filter0_d_1233_3953)">
<path d="M5.12613 13.3792L13.5338 21.787C13.5737 21.8269 13.6211 21.8587 13.6733 21.8803C13.7254 21.9019 13.7813 21.9131 13.8378 21.9131C13.8943 21.9131 13.9502 21.9019 14.0023 21.8803C14.0545 21.8587 14.1019 21.8269 14.1418 21.787L24.8746 11.0541C24.9145 11.0141 24.9461 10.9667 24.9676 10.9146C24.9891 10.8624 25.0001 10.8065 25 10.7501V4.66757L24.9966 4.61606L25 4.48898C25 4.14003 24.929 3.79473 24.7915 3.47403C24.654 3.15333 24.4527 2.86392 24.1999 2.62336C23.9472 2.38279 23.6482 2.19609 23.321 2.07459C22.9939 1.95308 22.6456 1.89931 22.297 1.91652L22.2455 1.91309H16.1613C16.0479 1.91334 15.9393 1.9584 15.859 2.03845L5.12613 12.7713C5.08615 12.8112 5.05443 12.8586 5.03278 12.9107C5.01114 12.9629 5 13.0188 5 13.0753C5 13.1318 5.01114 13.1877 5.03278 13.2398C5.05443 13.292 5.08615 13.3394 5.12613 13.3792Z" stroke="white" stroke-width="2" shape-rendering="crispEdges"/>
</g>
<path d="M14.6914 16.5099V8.78223" stroke="white" stroke-width="1.5" stroke-linecap="round"/>
<path d="M11.8661 12.0379C12.0273 12.1992 12.1179 12.4178 12.1179 12.6458C12.1179 12.8739 12.0273 13.0925 11.8661 13.2538C11.7048 13.415 11.4862 13.5056 11.2582 13.5056C11.0301 13.5056 10.8115 13.415 10.6502 13.2538C10.489 13.0925 10.3984 12.8739 10.3984 12.6458C10.3984 12.4178 10.489 12.1992 10.6502 12.0379C10.8115 11.8767 11.0301 11.7861 11.2582 11.7861C11.4862 11.7861 11.7048 11.8767 11.8661 12.0379ZM18.7351 12.0379C18.8963 12.1992 18.9869 12.4178 18.9869 12.6458C18.9869 12.8739 18.8963 13.0925 18.7351 13.2538C18.5739 13.415 18.3552 13.5056 18.1272 13.5056C17.8992 13.5056 17.6805 13.415 17.5193 13.2538C17.4395 13.1739 17.3761 13.0792 17.3329 12.9748C17.2897 12.8705 17.2675 12.7587 17.2675 12.6458C17.2675 12.5329 17.2897 12.4212 17.3329 12.3168C17.3761 12.2125 17.4395 12.1178 17.5193 12.0379C17.5991 11.9581 17.6939 11.8948 17.7982 11.8516C17.9025 11.8084 18.0143 11.7861 18.1272 11.7861C18.2401 11.7861 18.3519 11.8084 18.4562 11.8516C18.5605 11.8948 18.6553 11.9581 18.7351 12.0379Z" stroke="white" stroke-width="1.5"/>
<defs>
<filter id="filter0_d_1233_3953" x="0" y="0.913086" width="30" height="30" filterUnits="userSpaceOnUse" color-interpolation-filters="sRGB">
<feFlood flood-opacity="0" result="BackgroundImageFix"/>
<feColorMatrix in="SourceAlpha" type="matrix" values="0 0 0 0 0 0 0 0 0 0 0 0 0 0 0 0 0 0 127 0" result="hardAlpha"/>
<feOffset dy="4"/>
<feGaussianBlur stdDeviation="2"/>
<feComposite in2="hardAlpha" operator="out"/>
<feColorMatrix type="matrix" values="0 0 0 0 0 0 0 0 0 0 0 0 0 0 0 0 0 0 0.25 0"/>
<feBlend mode="normal" in2="BackgroundImageFix" result="effect1_dropShadow_1233_3953"/>
<feBlend mode="normal" in="SourceGraphic" in2="effect1_dropShadow_1233_3953" result="shape"/>
</filter>
</defs>
</svg>
