<svg width="24" height="23" viewBox="0 0 24 23" fill="none" xmlns="http://www.w3.org/2000/svg">
<g clip-path="url(#clip0_310_2351)">
<path d="M14.2243 0.126953C14.2521 0.138429 14.2787 0.15507 14.3072 0.161382C15.1425 0.346724 15.6567 0.86086 15.7947 1.64756C15.8566 2.00045 15.9184 2.35335 15.984 2.70567C16.1387 3.53426 16.9852 4.00077 17.844 3.72591C18.2301 3.60254 18.6088 3.45909 18.9925 3.32826C19.9231 3.01151 20.8209 3.30588 21.3215 4.10176C21.9588 5.11511 22.5912 6.13076 23.2186 7.14928C23.708 7.94344 23.5447 8.80129 22.7966 9.39117C22.4847 9.63733 22.1624 9.87088 21.8511 10.117C21.1451 10.6765 21.1464 11.5728 21.8548 12.1334C22.1717 12.3842 22.5008 12.6223 22.8176 12.8736C23.5342 13.4429 23.7056 14.3036 23.239 15.065C22.5992 16.1099 21.952 17.1508 21.2949 18.1866C20.824 18.9285 19.9299 19.2223 19.0525 18.9388C18.6596 18.812 18.2741 18.6657 17.8824 18.5349C16.9877 18.2365 16.1418 18.6973 15.9803 19.5672C15.9055 19.9688 15.8423 20.3728 15.7532 20.7716C15.58 21.5445 14.8554 22.1097 14.0046 22.1166C12.6687 22.1281 11.3328 22.1287 9.99689 22.1166C9.08175 22.108 8.36274 21.486 8.20682 20.6041C8.14432 20.2512 8.08245 19.8983 8.01748 19.5459C7.8634 18.7151 7.01941 18.2457 6.16181 18.52C5.7757 18.6433 5.39702 18.7862 5.01339 18.9165C4.07906 19.2338 3.18247 18.9423 2.68313 18.1487C2.04085 17.1308 1.40353 16.1094 0.772392 15.0845C0.291613 14.3036 0.460536 13.4434 1.19996 12.8604C1.51181 12.6149 1.83419 12.3807 2.14542 12.1346C2.85329 11.5757 2.85453 10.6748 2.14914 10.1176C1.83171 9.86686 1.50315 9.62873 1.18634 9.3774C0.467342 8.80703 0.29347 7.94688 0.758779 7.18715C1.39858 6.14224 2.04642 5.10134 2.70231 4.06503C3.1769 3.31563 4.07906 3.02184 4.9645 3.31334C5.34937 3.44015 5.72806 3.58246 6.11231 3.71099C7.00766 4.01052 7.85784 3.55147 8.01871 2.68444C8.08306 2.339 8.14494 1.99357 8.20496 1.64756C8.34233 0.86086 8.85528 0.347871 9.69246 0.161382C9.72155 0.15507 9.74815 0.138429 9.776 0.126953C11.2592 0.126953 12.7417 0.126953 14.2243 0.126953ZM2.35952 8.04902C2.68746 8.29978 2.99746 8.53561 3.30684 8.7726C4.94099 10.0235 4.9379 12.2292 3.30065 13.4819C2.99127 13.7183 2.68189 13.9547 2.37746 14.1877C2.38241 14.2123 2.38117 14.2284 2.38798 14.2393C3.00365 15.2309 3.62117 16.2213 4.23436 17.2145C4.295 17.3127 4.35379 17.3167 4.45774 17.2788C4.81662 17.148 5.17798 17.0235 5.54057 16.903C7.42965 16.2735 9.46476 17.354 9.82735 19.1787C9.90779 19.5838 9.97957 19.9906 10.0551 20.394C11.3662 20.394 12.6532 20.394 13.9502 20.394C14.0127 20.0475 14.0782 19.7095 14.1333 19.3709C14.4278 17.5583 16.195 16.3969 18.0804 16.806C18.5723 16.9127 19.0432 17.1061 19.5184 17.2731C19.6576 17.3218 19.7201 17.3 19.7894 17.1813C19.9775 16.8611 20.1805 16.5483 20.3772 16.2327C20.7968 15.5585 21.2163 14.8837 21.6408 14.2009C21.3283 13.9616 21.0257 13.7292 20.7219 13.498C19.0488 12.2235 19.0512 10.0241 20.7275 8.74907C21.0307 8.5184 21.3326 8.28658 21.642 8.04959C21.0096 7.03452 20.3834 6.03264 19.7628 5.02789C19.6972 4.92174 19.6304 4.94239 19.5351 4.97568C19.1385 5.11454 18.7443 5.26086 18.3415 5.38194C16.4945 5.93681 14.5244 4.84771 14.176 3.08381C14.0956 2.67698 14.0238 2.26842 13.9471 1.8547C12.6471 1.8547 11.3594 1.8547 10.0526 1.8547C9.99071 2.1944 9.92388 2.53066 9.86943 2.86863C9.5452 4.88559 7.48225 6.01887 5.42301 5.30849C5.09816 5.19659 4.77516 5.07896 4.44598 4.97682C4.39029 4.95961 4.27458 4.98773 4.2486 5.02847C3.61746 6.02633 2.99437 7.02993 2.35952 8.04902Z" fill="white"/>
<path d="M11.8521 15.3625C9.28552 15.2426 7.31043 13.2698 7.42676 10.9711C7.54618 8.60817 9.66049 6.79435 12.1591 6.89247C14.7176 6.99289 16.6834 8.97541 16.5733 11.2667C16.4601 13.6181 14.3693 15.4279 11.8521 15.3625ZM11.9957 8.60071C10.5113 8.60416 9.2849 9.74031 9.27872 11.1169C9.27315 12.4975 10.515 13.6514 12.0037 13.6474C13.4882 13.644 14.7145 12.5078 14.7207 11.1307C14.7275 9.74949 13.4863 8.59784 11.9957 8.60071Z" fill="white"/>
</g>
<defs>
<clipPath id="clip0_310_2351">
<rect width="23" height="22" fill="white" transform="translate(0.5 0.126953)"/>
</clipPath>
</defs>
</svg>
