<svg width="23" height="22" viewBox="0 0 23 22" fill="none" xmlns="http://www.w3.org/2000/svg">
<path d="M13.7243 0C13.7521 0.0114763 13.7787 0.0281169 13.8072 0.0344288C14.6425 0.21977 15.1567 0.733907 15.2947 1.52061C15.3566 1.8735 15.4184 2.2264 15.484 2.57872C15.6387 3.4073 16.4852 3.87381 17.344 3.59896C17.7301 3.47559 18.1088 3.33213 18.4925 3.2013C19.4231 2.88456 20.3209 3.17893 20.8215 3.9748C21.4588 4.98816 22.0912 6.00381 22.7186 7.02233C23.208 7.81648 23.0447 8.67434 22.2966 9.26422C21.9847 9.51038 21.6624 9.74392 21.3511 9.99009C20.6451 10.5496 20.6464 11.4459 21.3548 12.0065C21.6717 12.2572 22.0008 12.4954 22.3176 12.7467C23.0342 13.3159 23.2056 14.1766 22.739 14.9381C22.0992 15.983 21.452 17.0239 20.7949 18.0596C20.324 18.8016 19.4299 19.0954 18.5525 18.8119C18.1596 18.6851 17.7741 18.5388 17.3824 18.4079C16.4877 18.1095 15.6418 18.5703 15.4803 19.4402C15.4055 19.8419 15.3423 20.2459 15.2532 20.6447C15.08 21.4176 14.3554 21.9828 13.5046 21.9897C12.1687 22.0011 10.8328 22.0017 9.49689 21.9897C8.58175 21.9811 7.86274 21.3591 7.70682 20.4771C7.64432 20.1242 7.58245 19.7713 7.51748 19.419C7.3634 18.5881 6.51941 18.1187 5.66181 18.393C5.2757 18.5164 4.89702 18.6593 4.51339 18.7895C3.57906 19.1068 2.68247 18.8153 2.18313 18.0218C1.54085 17.0038 0.903529 15.9824 0.272392 14.9576C-0.208387 14.1766 -0.0394645 13.3165 0.699956 12.7335C1.01181 12.4879 1.33419 12.2538 1.64542 12.0076C2.35329 11.4487 2.35453 10.5478 1.64914 9.99066C1.33171 9.73991 1.00315 9.50177 0.686343 9.25044C-0.0326581 8.68007 -0.20653 7.81993 0.258779 7.0602C0.898579 6.01528 1.54642 4.97439 2.20231 3.93808C2.6769 3.18868 3.57906 2.89489 4.4645 3.18639C4.84937 3.3132 5.22806 3.4555 5.61231 3.58404C6.50766 3.88357 7.35784 3.42452 7.51871 2.55749C7.58306 2.21205 7.64494 1.86661 7.70496 1.52061C7.84233 0.733907 8.35528 0.220918 9.19246 0.0344288C9.22155 0.0281169 9.24815 0.0114763 9.276 0C10.7592 0 12.2417 0 13.7243 0ZM1.85952 7.92207C2.18746 8.17282 2.49746 8.40866 2.80684 8.64564C4.44099 9.89656 4.4379 12.1023 2.80065 13.3549C2.49127 13.5913 2.18189 13.8278 1.87746 14.0607C1.88241 14.0854 1.88117 14.1015 1.88798 14.1124C2.50365 15.1039 3.12117 16.0943 3.73436 17.0876C3.795 17.1857 3.85379 17.1897 3.95774 17.1519C4.31662 17.021 4.67798 16.8965 5.04057 16.776C6.92965 16.1465 8.96476 17.227 9.32735 19.0517C9.40779 19.4569 9.47957 19.8637 9.55506 20.2671C10.8662 20.2671 12.1532 20.2671 13.4502 20.2671C13.5127 19.9205 13.5782 19.5825 13.6333 19.244C13.9278 17.4313 15.695 16.2699 17.5804 16.679C18.0723 16.7858 18.5432 16.9791 19.0184 17.1461C19.1576 17.1949 19.2201 17.1731 19.2894 17.0543C19.4775 16.7341 19.6805 16.4214 19.8772 16.1058C20.2968 15.4316 20.7163 14.7568 21.1408 14.0739C20.8283 13.8346 20.5257 13.6022 20.2219 13.371C18.5488 12.0966 18.5512 9.89713 20.2275 8.62212C20.5307 8.39145 20.8326 8.15963 21.142 7.92264C20.5096 6.90756 19.8834 5.90569 19.2628 4.90094C19.1972 4.79478 19.1304 4.81544 19.0351 4.84872C18.6385 4.98759 18.2443 5.13391 17.8415 5.25498C15.9945 5.80986 14.0244 4.72076 13.676 2.95686C13.5956 2.55003 13.5238 2.14147 13.4471 1.72775C12.1471 1.72775 10.8594 1.72775 9.55258 1.72775C9.49071 2.06745 9.42388 2.4037 9.36943 2.74168C9.0452 4.75863 6.98225 5.89191 4.92301 5.18153C4.59816 5.06964 4.27516 4.95201 3.94598 4.84987C3.89029 4.83266 3.77458 4.86077 3.7486 4.90151C3.11746 5.89937 2.49437 6.90297 1.85952 7.92207Z" fill="black"/>
<path d="M11.3521 15.2356C8.78552 15.1156 6.81043 13.1429 6.92676 10.8442C7.04618 8.48122 9.16049 6.6674 11.6591 6.76552C14.2176 6.86594 16.1834 8.84846 16.0733 11.1397C15.9601 13.4912 13.8693 15.301 11.3521 15.2356ZM11.4957 8.47376C10.0113 8.4772 8.7849 9.61335 8.77872 10.9899C8.77315 12.3705 10.015 13.5245 11.5037 13.5204C12.9882 13.517 14.2145 12.3809 14.2207 11.0037C14.2275 9.62253 12.9863 8.47089 11.4957 8.47376Z" fill="black"/>
</svg>
