<svg width="21" height="27" viewBox="0 0 21 27" fill="none" xmlns="http://www.w3.org/2000/svg">
<path d="M12.2812 1.48828V8.98828H18.7098" fill="#02203B"/>
<path d="M12.2812 1.48828V8.98828H18.7098" stroke="white" stroke-width="2" stroke-linecap="round" stroke-linejoin="round"/>
<path d="M5.50335 16.8387C5.31391 16.8387 5.13223 16.7635 4.99827 16.6295C4.86432 16.4956 4.78906 16.3139 4.78906 16.1244C4.78906 15.935 4.86432 15.7533 4.99827 15.6194C5.13223 15.4854 5.31391 15.4102 5.50335 15.4102H15.5033C15.6928 15.4102 15.8745 15.4854 16.0084 15.6194C16.1424 15.7533 16.2176 15.935 16.2176 16.1244C16.2176 16.3139 16.1424 16.4956 16.0084 16.6295C15.8745 16.7635 15.6928 16.8387 15.5033 16.8387H5.50335ZM5.50335 20.4102C5.31391 20.4102 5.13223 20.3349 4.99827 20.2009C4.86432 20.067 4.78906 19.8853 4.78906 19.6959C4.78906 19.5064 4.86432 19.3247 4.99827 19.1908C5.13223 19.0568 5.31391 18.9816 5.50335 18.9816H15.5033C15.6928 18.9816 15.8745 19.0568 16.0084 19.1908C16.1424 19.3247 16.2176 19.5064 16.2176 19.6959C16.2176 19.8853 16.1424 20.067 16.0084 20.2009C15.8745 20.3349 15.6928 20.4102 15.5033 20.4102H5.50335Z" fill="white" stroke="white" stroke-width="0.5"/>
<path fill-rule="evenodd" clip-rule="evenodd" d="M12.1929 0.413086H2.64286C2.07454 0.413086 1.52949 0.638851 1.12763 1.04071C0.725765 1.44258 0.5 1.98762 0.5 2.55594V23.9845C0.5 24.5528 0.725765 25.0979 1.12763 25.4997C1.52949 25.9016 2.07454 26.1274 2.64286 26.1274H18.3571C18.9255 26.1274 19.4705 25.9016 19.8724 25.4997C20.2742 25.0979 20.5 24.5528 20.5 23.9845V9.27309C20.4999 8.73662 20.2985 8.21971 19.9357 7.82451L13.7729 1.10737C13.572 0.888437 13.3278 0.713658 13.0558 0.594135C12.7838 0.474613 12.49 0.412958 12.1929 0.413086ZM1.92857 2.55594C1.92857 2.3665 2.00383 2.18482 2.13778 2.05087C2.27174 1.91691 2.45342 1.84166 2.64286 1.84166H12.1929C12.292 1.84155 12.39 1.86207 12.4808 1.90191C12.5715 1.94175 12.653 2.00005 12.72 2.07309L18.8829 8.79023C19.004 8.92189 19.0713 9.0942 19.0714 9.27309V23.9845C19.0714 24.174 18.9962 24.3556 18.8622 24.4896C18.7283 24.6235 18.5466 24.6988 18.3571 24.6988H2.64286C2.45342 24.6988 2.27174 24.6235 2.13778 24.4896C2.00383 24.3556 1.92857 24.174 1.92857 23.9845V2.55594Z" fill="white" stroke="white" stroke-width="0.5"/>
<path d="M7.8331 7.75001C8.0371 7.75625 8.24028 7.72147 8.43059 7.64771C8.62089 7.57396 8.79445 7.46273 8.94096 7.32064C9.08747 7.17855 9.20396 7.00847 9.2835 6.82051C9.36305 6.63255 9.40404 6.43053 9.40404 6.22643C9.40404 6.02234 9.36305 5.82031 9.2835 5.63235C9.20396 5.44439 9.08747 5.27432 8.94096 5.13223C8.79445 4.99014 8.62089 4.87891 8.43059 4.80516C8.24028 4.7314 8.0371 4.69662 7.8331 4.70286C7.43709 4.71499 7.06137 4.88082 6.78555 5.16523C6.50972 5.44963 6.35547 5.83025 6.35547 6.22643C6.35547 6.62262 6.50972 7.00324 6.78555 7.28764C7.06137 7.57204 7.43709 7.73788 7.8331 7.75001Z" fill="white"/>
<path fill-rule="evenodd" clip-rule="evenodd" d="M10.8833 11.0487C10.8833 9.42872 9.51906 8.25586 7.83621 8.25586C6.15335 8.25586 4.78906 9.42729 4.78906 11.0487V11.8116C4.78944 11.9462 4.84319 12.0752 4.93852 12.1703C5.03386 12.2653 5.163 12.3187 5.29763 12.3187H10.3762C10.5106 12.3183 10.6394 12.2648 10.7344 12.1698C10.8294 12.0747 10.883 11.946 10.8833 11.8116V11.0487Z" fill="white"/>
</svg>
