<svg width="22" height="27" viewBox="0 0 22 27" fill="none" xmlns="http://www.w3.org/2000/svg">
<path d="M12.7812 2.07422V9.57422H19.2098" fill="white"/>
<path d="M12.7812 2.07422V9.57422H19.2098" stroke="black" stroke-width="2" stroke-linecap="round" stroke-linejoin="round"/>
<path d="M6.00335 17.4247C5.81391 17.4247 5.63223 17.3494 5.49827 17.2155C5.36432 17.0815 5.28906 16.8998 5.28906 16.7104C5.28906 16.5209 5.36432 16.3393 5.49827 16.2053C5.63223 16.0713 5.81391 15.9961 6.00335 15.9961H16.0033C16.1928 15.9961 16.3745 16.0713 16.5084 16.2053C16.6424 16.3393 16.7176 16.5209 16.7176 16.7104C16.7176 16.8998 16.6424 17.0815 16.5084 17.2155C16.3745 17.3494 16.1928 17.4247 16.0033 17.4247H6.00335ZM6.00335 20.9961C5.81391 20.9961 5.63223 20.9208 5.49827 20.7869C5.36432 20.6529 5.28906 20.4712 5.28906 20.2818C5.28906 20.0924 5.36432 19.9107 5.49827 19.7767C5.63223 19.6428 5.81391 19.5675 6.00335 19.5675H16.0033C16.1928 19.5675 16.3745 19.6428 16.5084 19.7767C16.6424 19.9107 16.7176 20.0924 16.7176 20.2818C16.7176 20.4712 16.6424 20.6529 16.5084 20.7869C16.3745 20.9208 16.1928 20.9961 16.0033 20.9961H6.00335Z" fill="black" stroke="black" stroke-width="0.5"/>
<path fill-rule="evenodd" clip-rule="evenodd" d="M12.6929 1H3.14286C2.57454 1 2.02949 1.22576 1.62763 1.62763C1.22576 2.02949 1 2.57454 1 3.14286V24.5714C1 25.1398 1.22576 25.6848 1.62763 26.0867C2.02949 26.4885 2.57454 26.7143 3.14286 26.7143H18.8571C19.4255 26.7143 19.9705 26.4885 20.3724 26.0867C20.7742 25.6848 21 25.1398 21 24.5714V9.86C20.9999 9.32353 20.7985 8.80663 20.4357 8.41143L14.2729 1.69429C14.072 1.47535 13.8278 1.30057 13.5558 1.18105C13.2838 1.06153 12.99 0.999872 12.6929 1ZM2.42857 3.14286C2.42857 2.95342 2.50383 2.77174 2.63778 2.63778C2.77174 2.50383 2.95342 2.42857 3.14286 2.42857H12.6929C12.792 2.42846 12.89 2.44898 12.9808 2.48883C13.0715 2.52867 13.153 2.58696 13.22 2.66L19.3829 9.37714C19.504 9.5088 19.5713 9.68111 19.5714 9.86V24.5714C19.5714 24.7609 19.4962 24.9426 19.3622 25.0765C19.2283 25.2105 19.0466 25.2857 18.8571 25.2857H3.14286C2.95342 25.2857 2.77174 25.2105 2.63778 25.0765C2.50383 24.9426 2.42857 24.7609 2.42857 24.5714V3.14286Z" fill="black" stroke="black" stroke-width="0.5"/>
<path d="M8.3331 8.33692C8.5371 8.34317 8.74028 8.30838 8.93059 8.23463C9.12089 8.16087 9.29445 8.04965 9.44096 7.90755C9.58747 7.76546 9.70396 7.59539 9.7835 7.40743C9.86305 7.21947 9.90404 7.01745 9.90404 6.81335C9.90404 6.60925 9.86305 6.40723 9.7835 6.21927C9.70396 6.03131 9.58747 5.86124 9.44096 5.71914C9.29445 5.57705 9.12089 5.46583 8.93059 5.39207C8.74028 5.31832 8.5371 5.28353 8.3331 5.28978C7.93709 5.3019 7.56137 5.46774 7.28555 5.75214C7.00972 6.03654 6.85547 6.41716 6.85547 6.81335C6.85547 7.20954 7.00972 7.59016 7.28555 7.87456C7.56137 8.15896 7.93709 8.32479 8.3331 8.33692Z" fill="black"/>
<path fill-rule="evenodd" clip-rule="evenodd" d="M11.3833 11.6347C11.3833 10.0147 10.0191 8.8418 8.33621 8.8418C6.65335 8.8418 5.28906 10.0132 5.28906 11.6347V12.3975C5.28944 12.5321 5.34319 12.6611 5.43852 12.7562C5.53386 12.8513 5.663 12.9047 5.79763 12.9047H10.8762C11.0106 12.9043 11.1394 12.8507 11.2344 12.7557C11.3294 12.6607 11.383 12.5319 11.3833 12.3975V11.6347Z" fill="black"/>
</svg>
