<svg width="19" height="18" viewBox="0 0 19 18" fill="none" xmlns="http://www.w3.org/2000/svg">
<path d="M8.75 1.5C12.4779 1.5 15.5 4.52208 15.5 8.25C15.5 9.84322 14.9466 11.3064 14.0234 12.4609L16.7803 15.2188C17.0732 15.5116 17.0732 15.9864 16.7803 16.2793C16.4874 16.5719 16.0125 16.5721 15.7197 16.2793L12.9629 13.5225C11.8081 14.4464 10.344 15 8.75 15C5.02208 15 2 11.9779 2 8.25C2 4.52208 5.02208 1.5 8.75 1.5ZM8.75 3C5.8505 3 3.5 5.3505 3.5 8.25C3.5 11.1495 5.8505 13.5 8.75 13.5C10.1689 13.5 11.4546 12.9352 12.3994 12.0205C12.4171 11.9982 12.4364 11.9767 12.457 11.9561C12.4778 11.9353 12.5 11.9162 12.5225 11.8984C13.4363 10.9537 14 9.66819 14 8.25C14 5.3505 11.6495 3 8.75 3Z" fill="white"/>
</svg>
