<svg width="22" height="23" viewBox="0 0 22 23" fill="none" xmlns="http://www.w3.org/2000/svg">
<g clip-path="url(#clip0_310_2382)">
<path d="M4.10732 10.4286C4.19748 10.4286 4.28698 10.4286 4.37714 10.4286C7.29881 10.4286 10.2205 10.4273 13.1422 10.4293C13.8258 10.43 14.3009 10.8925 14.2881 11.5324C14.2773 12.0781 13.8554 12.5318 13.3144 12.5758C13.2061 12.5846 13.0964 12.5833 12.9874 12.5833C10.1162 12.5839 7.24498 12.5833 4.37378 12.5833C4.28429 12.5833 4.19547 12.5833 4.05214 12.5833C4.13491 12.6787 4.17797 12.7356 4.22776 12.7857C4.61265 13.1751 5.00226 13.559 5.38378 13.9518C5.83596 14.4176 5.84673 15.0859 5.41608 15.5153C4.98543 15.9452 4.31928 15.933 3.86104 15.4753C2.81336 14.4271 1.76837 13.3762 0.72674 12.3219C0.229477 11.8188 0.232169 11.1897 0.732123 10.6839C1.76837 9.63572 2.80663 8.59023 3.84893 7.54812C4.32197 7.07548 4.98611 7.06059 5.42079 7.50005C5.8548 7.9395 5.83462 8.60038 5.3636 9.0825C4.94035 9.51519 4.50903 9.93975 4.08175 10.3677C4.08848 10.388 4.0979 10.4083 4.10732 10.4286Z" fill="#DB0D4B"/>
<path d="M21.8277 16.7732C21.829 12.7767 21.8317 8.7803 21.827 4.78387C21.8243 2.46741 20.1387 0.689936 17.8899 0.681134C15.9184 0.673685 12.7659 0.669622 10.1201 0.668945C9.52732 0.668945 9.04688 1.15242 9.04688 1.74965V1.75574C9.04688 2.35229 9.52664 2.83644 10.1201 2.83644C12.7477 2.83644 15.8746 2.83712 17.826 2.83847C18.8851 2.83915 19.6758 3.63004 19.6771 4.69788C19.6818 9.23466 19.6818 13.7721 19.6771 18.3096C19.6758 19.3761 18.8824 20.1649 17.8227 20.1656C15.8726 20.1669 12.7477 20.1676 10.1208 20.1676C9.52799 20.1676 9.04755 20.6511 9.04755 21.2483C9.04755 21.8449 9.52732 22.3283 10.1201 22.329C12.7457 22.3297 15.8693 22.3331 17.8173 22.3277C19.9793 22.3216 21.6642 20.7418 21.8102 18.5723C21.8499 17.9751 21.8277 17.3731 21.8277 16.7732Z" fill="#DB0D4B"/>
</g>
<defs>
<clipPath id="clip0_310_2382">
<rect width="22" height="22" fill="white" transform="translate(0 0.5)"/>
</clipPath>
</defs>
</svg>
