<svg width="14" height="14" viewBox="0 0 14 14" fill="none" xmlns="http://www.w3.org/2000/svg">
<path d="M1.68016 13.6663C1.29627 13.6663 0.975996 13.538 0.719329 13.2813C0.462663 13.0247 0.334052 12.7041 0.333496 12.3197V1.67967C0.333496 1.29579 0.462107 0.975508 0.719329 0.718841C0.976551 0.462174 1.29683 0.333563 1.68016 0.333008H9.42183C9.60127 0.333008 9.77572 0.369119 9.94516 0.441341C10.1146 0.514675 10.2596 0.611619 10.3802 0.732175L13.2677 3.61967C13.3888 3.74079 13.4854 3.88579 13.5577 4.05467C13.6304 4.22412 13.6668 4.39856 13.6668 4.57801V12.3197C13.6668 12.7036 13.5385 13.0241 13.2818 13.2813C13.0252 13.5386 12.7046 13.6669 12.3202 13.6663H1.68016ZM1.68016 12.833H12.321C12.4704 12.833 12.5932 12.785 12.6893 12.6888C12.7854 12.5927 12.8335 12.47 12.8335 12.3205V4.49967H10.1735C9.97961 4.49967 9.81905 4.43579 9.69183 4.30801C9.56461 4.18023 9.50072 4.01967 9.50016 3.82634V1.16634H1.68016C1.53016 1.16634 1.40711 1.2144 1.311 1.31051C1.21488 1.40662 1.16683 1.52967 1.16683 1.67967V12.3205C1.16683 12.47 1.21488 12.5927 1.311 12.6888C1.40711 12.785 1.53016 12.833 1.68016 12.833ZM10.3335 10.333C10.4524 10.333 10.5516 10.2933 10.631 10.2138C10.7104 10.1344 10.7502 10.0352 10.7502 9.91634C10.7502 9.79745 10.7104 9.69829 10.631 9.61884C10.5516 9.5394 10.4524 9.49967 10.3335 9.49967H3.66683C3.5485 9.49967 3.44933 9.5394 3.36933 9.61884C3.28933 9.69829 3.24961 9.79745 3.25016 9.91634C3.25072 10.0352 3.29044 10.1344 3.36933 10.2138C3.44822 10.2933 3.54738 10.333 3.66683 10.333H10.3335ZM6.5835 4.49967C6.70238 4.49967 6.80155 4.45995 6.881 4.38051C6.96044 4.30106 7.00016 4.2019 7.00016 4.08301C7.00016 3.96412 6.96044 3.86495 6.881 3.78551C6.80155 3.70606 6.70238 3.66634 6.5835 3.66634H3.66683C3.5485 3.66634 3.44933 3.70606 3.36933 3.78551C3.28933 3.86495 3.24961 3.96412 3.25016 4.08301C3.25072 4.2019 3.29044 4.30106 3.36933 4.38051C3.44822 4.45995 3.54738 4.49967 3.66683 4.49967H6.5835ZM10.3335 7.41634C10.4524 7.41634 10.5516 7.37662 10.631 7.29717C10.7104 7.21773 10.7502 7.11856 10.7502 6.99967C10.7502 6.88079 10.7104 6.78162 10.631 6.70217C10.5516 6.62273 10.4524 6.58301 10.3335 6.58301H3.66683C3.5485 6.58301 3.44933 6.62273 3.36933 6.70217C3.28933 6.78162 3.24961 6.88079 3.25016 6.99967C3.25072 7.11856 3.29044 7.21773 3.36933 7.29717C3.44822 7.37662 3.54738 7.41634 3.66683 7.41634H10.3335Z" fill="black"/>
</svg>
