<svg width="20" height="20" viewBox="0 0 20 20" fill="none" xmlns="http://www.w3.org/2000/svg">
<path d="M18.8142 0.872278C18.9676 0.827415 19.1314 0.821113 19.2879 0.852747C19.2924 0.853678 19.297 0.85468 19.3015 0.855676C19.3365 0.863264 19.3711 0.872568 19.4051 0.883997C19.4077 0.884886 19.4102 0.886014 19.4129 0.886926L19.4334 0.893762C19.502 0.919267 19.5672 0.953827 19.6287 0.995325C19.6326 0.997951 19.6366 1.00045 19.6404 1.00314C19.6727 1.02568 19.7046 1.04933 19.7342 1.07638C19.9894 1.31037 20.0598 1.64887 19.948 1.94161L13.5847 18.6076C13.4616 18.9301 13.1359 19.1513 12.7635 19.1652C12.3912 19.179 12.0476 18.9832 11.8963 18.6711L8.40213 11.4641L0.539823 8.26095C0.199205 8.12218 -0.0144339 7.80645 0.000760439 7.46505C0.0161394 7.1239 0.256625 6.82597 0.608182 6.7131L18.7898 0.879114C18.7978 0.876545 18.8062 0.874632 18.8142 0.872278ZM10.1746 11.0168L12.6267 16.0735L16.9148 4.8381L10.1746 11.0168ZM3.37283 7.592L8.88846 9.8381L15.6297 3.65841L3.37283 7.592Z" fill="black"/>
</svg>
