<svg width="21" height="20" viewBox="0 0 21 20" fill="none" xmlns="http://www.w3.org/2000/svg">
<path d="M15.3626 11H11.2659V15H9.21754V11H5.12086V9H9.21754V5H11.2659V9H15.3626M10.2417 0C8.89675 0 7.56496 0.258658 6.32238 0.761205C5.0798 1.26375 3.95076 2.00035 2.99973 2.92893C1.07903 4.8043 0 7.34784 0 10C0 12.6522 1.07903 15.1957 2.99973 17.0711C3.95076 17.9997 5.0798 18.7362 6.32238 19.2388C7.56496 19.7413 8.89675 20 10.2417 20C12.958 20 15.563 18.9464 17.4837 17.0711C19.4044 15.1957 20.4834 12.6522 20.4834 10C20.4834 8.68678 20.2185 7.38642 19.7038 6.17317C19.1891 4.95991 18.4347 3.85752 17.4837 2.92893C16.5327 2.00035 15.4036 1.26375 14.161 0.761205C12.9185 0.258658 11.5867 0 10.2417 0Z" fill="white"/>
</svg>
