<svg width="32" height="33" viewBox="0 0 32 33" fill="none" xmlns="http://www.w3.org/2000/svg">
<path d="M9.33523 24.6227C7.6716 24.6227 6.0761 23.9905 4.89974 22.8653C3.72337 21.7401 3.0625 20.214 3.0625 18.6227C3.0625 17.0314 3.72337 15.5052 4.89974 14.38C6.0761 13.2548 7.6716 12.6227 9.33523 12.6227C9.72814 10.8722 10.8776 9.33397 12.5307 8.34628C13.3492 7.85722 14.2668 7.51805 15.2309 7.34814C16.1951 7.17823 17.187 7.18089 18.15 7.35599C19.1131 7.53109 20.0283 7.87518 20.8436 8.36863C21.6589 8.86208 22.3582 9.49522 22.9016 10.2319C23.445 10.9686 23.8218 11.7944 24.0106 12.6621C24.1994 13.5299 24.1964 14.4226 24.0019 15.2893H25.3352C26.5729 15.2893 27.7599 15.781 28.6351 16.6562C29.5102 17.5313 30.0019 18.7183 30.0019 19.956C30.0019 21.1937 29.5102 22.3807 28.6351 23.2558C27.7599 24.131 26.5729 24.6227 25.3352 24.6227H24.0019" stroke="black" stroke-width="2" stroke-linecap="round" stroke-linejoin="round"/>
<path d="M12 20.623L16 16.623L20 20.623" stroke="black" stroke-width="2" stroke-linecap="round" stroke-linejoin="round"/>
<path d="M16 16.623V28.623" stroke="black" stroke-width="2" stroke-linecap="round" stroke-linejoin="round"/>
</svg>
