<svg width="154" height="25" viewBox="0 0 154 25" fill="none" xmlns="http://www.w3.org/2000/svg">
<path d="M0.5 24.5V20.5312L8.65625 6.125H0.5V0.8125H15.4375V5.71875L7.89062 19.1875H15.4375V24.5H0.5ZM29.375 15.8906V24.5H23.3281V15.8906L16.25 0.8125H22.8125L26.3281 10.3281L29.875 0.8125H36.375L29.375 15.8906ZM53.7656 24.5L48.6406 16.1094L43.7812 24.5H37.0312L45.3125 11.8906L37.9844 0.8125H44.8438L48.9062 7.57812L52.8438 0.8125H59.6562L52.4219 12.0156L60.6094 24.5H53.7656ZM85.5312 24.5H80.2188L76.6719 9.17188H76.6094L73.0469 24.5H67.5781L61.4688 0.8125H67.6094L70.7812 16.2188H70.8438L74.3281 0.8125H78.9688L82.3906 16.2812H82.4531L85.6875 0.8125H91.8125L85.5312 24.5ZM94.5156 24.5V0.8125H107.672V6.125H100.312V9.8125H107.438V15.125H100.312V19.1875H107.672V24.5H94.5156ZM126.688 24.5L125.531 21.0781H117.312L116.062 24.5H109.562L119.062 0.8125H123.828L133.25 24.5H126.688ZM121.5 8.1875H121.406L118.969 16.2812H123.938L121.5 8.1875ZM147 24.5L141.531 16.8594H141.469V24.5H135.672V0.8125H143.156C143.948 0.8125 144.583 0.828125 145.062 0.859375C145.771 0.890625 146.406 0.958333 146.969 1.0625C148.385 1.30208 149.547 1.78646 150.453 2.51562C152.401 4.07812 153.375 6.23438 153.375 8.98438C153.375 10.8698 152.859 12.4896 151.828 13.8438C150.755 15.2812 149.307 16.1458 147.484 16.4375L153.906 24.5H147ZM147.578 9.32812C147.578 8.23438 147.188 7.41146 146.406 6.85938C145.729 6.36979 144.818 6.125 143.672 6.125H141.469V12.7188H143.609C146.255 12.7188 147.578 11.5885 147.578 9.32812Z" fill="black"/>
</svg>
