<svg width="24" height="24" viewBox="0 0 24 24" fill="none" xmlns="http://www.w3.org/2000/svg">
<path d="M12 10.0105H12.0001C13.0669 10.0094 14.0897 9.58509 14.8439 8.83066C15.5981 8.07623 16.0222 7.05336 16.023 5.98658V5.9865C16.023 5.19059 15.787 4.41255 15.3448 3.75078C14.9026 3.08901 14.274 2.57325 13.5387 2.26871C12.8033 1.96418 11.9942 1.88455 11.2136 2.0399C10.433 2.19525 9.71598 2.5786 9.15325 3.14147C8.59053 3.70434 8.20736 4.42144 8.05221 5.20209C7.89706 5.98273 7.97689 6.79186 8.28161 7.52713C8.58634 8.2624 9.10226 8.89079 9.76414 9.33283C10.426 9.77487 11.2041 10.0107 12 10.0105ZM6.56201 22.0365H17.438C18.1276 22.0365 18.7889 21.7626 19.2765 21.275C19.7641 20.7874 20.038 20.1261 20.038 19.4365V18.6095C20.038 14.5743 16.4228 11.3095 12 11.3095C7.57718 11.3095 3.96201 14.5763 3.96201 18.6095V19.4365C3.96201 20.1261 4.23594 20.7874 4.72353 21.275C5.21113 21.7626 5.87245 22.0365 6.56201 22.0365ZM5.16201 18.6115C5.16201 15.257 8.21836 12.5115 12 12.5115C15.7817 12.5115 18.838 15.257 18.838 18.6095V19.4385C18.838 19.8098 18.6905 20.1659 18.428 20.4285C18.1654 20.691 17.8093 20.8385 17.438 20.8385H6.56201C6.19071 20.8385 5.83461 20.691 5.57206 20.4285C5.30951 20.1659 5.16201 19.8098 5.16201 19.4385V18.6115ZM10.4307 3.63903C10.8952 3.3288 11.4414 3.16331 12 3.1635C12.7485 3.16429 13.466 3.46196 13.9953 3.99122C14.5246 4.52048 14.8222 5.23811 14.823 5.9866C14.8232 6.5452 14.6577 7.0913 14.3475 7.55583C14.0373 8.02038 13.5962 8.38249 13.0802 8.59635C12.5641 8.81021 11.9962 8.86622 11.4483 8.75729C10.9004 8.64835 10.3971 8.37937 10.0021 7.98437C9.60714 7.58937 9.33816 7.08609 9.22923 6.5382C9.12029 5.99031 9.1763 5.42242 9.39016 4.90636C9.60402 4.3903 9.96613 3.94926 10.4307 3.63903Z" fill="black" stroke="black" stroke-width="0.2"/>
</svg>
