<svg width="24" height="24" viewBox="0 0 24 24" fill="none" xmlns="http://www.w3.org/2000/svg">
<path d="M3.96195 12.0781L4.08898 12.1579L3.96195 12.0781C3.88723 12.1971 3.85 12.3491 3.85 12.5C3.85 12.6509 3.88723 12.8029 3.96195 12.9219C4.03622 13.0402 4.15506 13.1339 4.30381 13.1339H19.6962C19.8449 13.1339 19.9638 13.0402 20.038 12.9219C20.1128 12.8029 20.15 12.6509 20.15 12.5C20.15 12.3491 20.1128 12.1971 20.038 12.0781C19.9638 11.9598 19.8449 11.8661 19.6962 11.8661H4.30381C4.15506 11.8661 4.03622 11.9598 3.96195 12.0781ZM4.30381 6.11774H19.6962C19.8449 6.11774 19.9638 6.02407 20.038 5.90578C20.1128 5.78678 20.15 5.63479 20.15 5.48387C20.15 5.33295 20.1128 5.18096 20.038 5.06196C19.9638 4.94368 19.8449 4.85 19.6962 4.85H4.30381C4.15506 4.85 4.03622 4.94368 3.96195 5.06196C3.88723 5.18096 3.85 5.33295 3.85 5.48387C3.85 5.63479 3.88723 5.78678 3.96195 5.90578C4.03622 6.02407 4.15506 6.11774 4.30381 6.11774ZM4.30381 20.15H19.6962C19.8449 20.15 19.9638 20.0563 20.038 19.938C20.1128 19.819 20.15 19.667 20.15 19.5161C20.15 19.3652 20.1128 19.2132 20.038 19.0942C19.9638 18.9759 19.8449 18.8823 19.6962 18.8823H4.30381C4.15506 18.8823 4.03622 18.9759 3.96195 19.0942C3.88723 19.2132 3.85 19.3652 3.85 19.5161C3.85 19.667 3.88723 19.819 3.96195 19.938C4.03622 20.0563 4.15506 20.15 4.30381 20.15Z" fill="black" stroke="black" stroke-width="0.3"/>
</svg>
