<svg width="18" height="18" viewBox="0 0 18 18" fill="none" xmlns="http://www.w3.org/2000/svg">
<path d="M14.0658 14.0658C14.5543 14.0658 15.0229 14.2599 15.3684 14.6053C15.7138 14.9508 15.9079 15.4193 15.9079 15.9079C15.9079 16.3965 15.7138 16.865 15.3684 17.2105C15.0229 17.5559 14.5543 17.75 14.0658 17.75C13.5772 17.75 13.1087 17.5559 12.7632 17.2105C12.4178 16.865 12.2237 16.3965 12.2237 15.9079C12.2237 15.4193 12.4178 14.9508 12.7632 14.6053C13.1087 14.2599 13.5772 14.0658 14.0658 14.0658ZM14.0658 14.9868C13.8215 14.9868 13.5872 15.0839 13.4145 15.2566C13.2418 15.4293 13.1447 15.6636 13.1447 15.9079C13.1447 16.1522 13.2418 16.3864 13.4145 16.5592C13.5872 16.7319 13.8215 16.8289 14.0658 16.8289C14.3101 16.8289 14.5443 16.7319 14.7171 16.5592C14.8898 16.3864 14.9868 16.1522 14.9868 15.9079C14.9868 15.6636 14.8898 15.4293 14.7171 15.2566C14.5443 15.0839 14.3101 14.9868 14.0658 14.9868ZM5.77632 14.0658C6.26487 14.0658 6.73342 14.2599 7.07888 14.6053C7.42434 14.9508 7.61842 15.4193 7.61842 15.9079C7.61842 16.3965 7.42434 16.865 7.07888 17.2105C6.73342 17.5559 6.26487 17.75 5.77632 17.75C5.28776 17.75 4.81921 17.5559 4.47375 17.2105C4.12829 16.865 3.93421 16.3965 3.93421 15.9079C3.93421 15.4193 4.12829 14.9508 4.47375 14.6053C4.81921 14.2599 5.28776 14.0658 5.77632 14.0658ZM5.77632 14.9868C5.53204 14.9868 5.29776 15.0839 5.12503 15.2566C4.9523 15.4293 4.85526 15.6636 4.85526 15.9079C4.85526 16.1522 4.9523 16.3864 5.12503 16.5592C5.29776 16.7319 5.53204 16.8289 5.77632 16.8289C6.02059 16.8289 6.25487 16.7319 6.4276 16.5592C6.60033 16.3864 6.69737 16.1522 6.69737 15.9079C6.69737 15.6636 6.60033 15.4293 6.4276 15.2566C6.25487 15.0839 6.02059 14.9868 5.77632 14.9868ZM15.9079 3.01316H3.26184L5.61053 8.53947H13.1447C13.4487 8.53947 13.7158 8.39211 13.8816 8.17105L16.6447 4.48684C16.7645 4.33026 16.8289 4.13684 16.8289 3.93421C16.8289 3.68993 16.7319 3.45566 16.5592 3.28293C16.3864 3.1102 16.1522 3.01316 15.9079 3.01316ZM13.1447 9.46053H5.65658L4.94737 10.8974L4.85526 11.3026C4.85526 11.5469 4.9523 11.7812 5.12503 11.9539C5.29776 12.1266 5.53204 12.2237 5.77632 12.2237H15.9079V13.1447H5.77632C5.28776 13.1447 4.81921 12.9507 4.47375 12.6052C4.12829 12.2597 3.93421 11.7912 3.93421 11.3026C3.93394 10.9901 4.01318 10.6827 4.16447 10.4092L4.82763 9.05526L1.48421 1.17105H0.25V0.25H2.09211L2.875 2.09211H15.9079C16.3965 2.09211 16.865 2.28618 17.2105 2.63165C17.5559 2.97711 17.75 3.44565 17.75 3.93421C17.75 4.39474 17.5934 4.78158 17.3355 5.09474L14.6553 8.67763C14.3237 9.14737 13.7711 9.46053 13.1447 9.46053Z" fill="black" stroke="black" stroke-width="0.3"/>
</svg>
