<svg viewBox="0 0 24 24" fill="none" xmlns="http://www.w3.org/2000/svg">
<path d="M13.8428 21.1504C13.7655 22.0979 12.9665 22.8496 12 22.8496C11.0335 22.8496 10.2345 22.0979 10.1572 21.1504H13.8428ZM12 2.15039C12.5094 2.15039 13.0139 2.38667 13.3027 2.70117C12.5579 3.56847 11.9925 4.61832 11.8643 5.85254C9.04632 5.92243 6.84961 8.16257 6.84961 11V18.1504H17.1504V12.1504H17.5C17.9554 12.1504 18.4084 12.0685 18.8496 11.9814V17.0625L20.8496 19.0625V19.8496H3.15039V19.0625L5.15039 17.0625V11C5.15039 7.96636 7.10634 5.32437 10.043 4.44336L10.1504 4.41113V4C10.1504 2.98284 10.9828 2.15039 12 2.15039ZM17.5 3.15039C19.3172 3.15039 20.8496 4.68284 20.8496 6.5C20.8496 8.31716 19.3172 9.84961 17.5 9.84961C15.6828 9.84961 14.1504 8.31716 14.1504 6.5C14.1504 4.68284 15.6828 3.15039 17.5 3.15039Z" fill="black" stroke="white" stroke-width="0.3"/>
<circle cx="17.5" cy="6.5" r="3.5" fill="#E92215"/>
</svg>
