<svg viewBox="0 0 18 21" fill="none" xmlns="http://www.w3.org/2000/svg">
<path d="M10.8428 19.1504C10.7655 20.0979 9.96651 20.8496 9 20.8496C8.03349 20.8496 7.2345 20.0979 7.15723 19.1504H10.8428ZM9 0.150391C10.0172 0.150391 10.8496 0.982843 10.8496 2V2.41113L10.957 2.44336C13.8937 3.32437 15.8496 5.96636 15.8496 9V15.0625L17.8496 17.0625V17.8496H0.150391V17.0625L2.15039 15.0625V9C2.15039 5.96636 4.10634 3.32437 7.04297 2.44336L7.15039 2.41113V2C7.15039 0.982843 7.98284 0.150391 9 0.150391ZM9 3.84961C6.11716 3.84961 3.84961 6.11716 3.84961 9V16.1504H14.1504V9C14.1504 6.11716 11.8828 3.84961 9 3.84961Z" fill="black" stroke="white" stroke-width="0.3"/>
</svg>
