<svg width="20" height="20" viewBox="0 0 20 20" fill="none" xmlns="http://www.w3.org/2000/svg">
<path d="M1.89584 19.9885C1.40551 20.0173 0.923294 19.8524 0.55087 19.5285C-0.183623 18.7811 -0.183623 17.5739 0.55087 16.8264L16.6339 0.556185C17.3978 -0.166976 18.5965 -0.126776 19.3114 0.646052C19.9578 1.34492 19.9955 2.41909 19.3996 3.16251L3.22184 19.5285C2.85422 19.8477 2.37974 20.0123 1.89584 19.9885Z" fill="black"/>
<path d="M17.9623 19.989C17.4653 19.9868 16.9891 19.7873 16.6362 19.4332L0.553162 3.16294C-0.127308 2.35906 -0.0347947 1.14927 0.759835 0.460819C1.46906 -0.153606 2.51503 -0.153606 3.2242 0.460819L19.402 16.731C20.1657 17.4544 20.2052 18.6672 19.4902 19.4398C19.4617 19.4705 19.4323 19.5003 19.402 19.529C19.0058 19.8775 18.4845 20.0441 17.9623 19.989Z" fill="black"/>
</svg>
