<svg width="20" height="21" viewBox="0 0 20 21" fill="none" xmlns="http://www.w3.org/2000/svg">
<path fill-rule="evenodd" clip-rule="evenodd" d="M3.72039 13.3864C4.50179 12.605 5.5616 12.166 6.66667 12.166H13.3333C14.4384 12.166 15.4982 12.605 16.2796 13.3864C17.061 14.1678 17.5 15.2276 17.5 16.3327V17.9993C17.5 18.4596 17.1269 18.8327 16.6667 18.8327C16.2064 18.8327 15.8333 18.4596 15.8333 17.9993V16.3327C15.8333 15.6696 15.5699 15.0338 15.1011 14.5649C14.6323 14.0961 13.9964 13.8327 13.3333 13.8327H6.66667C6.00363 13.8327 5.36774 14.0961 4.8989 14.5649C4.43006 15.0338 4.16667 15.6696 4.16667 16.3327V17.9993C4.16667 18.4596 3.79357 18.8327 3.33333 18.8327C2.8731 18.8327 2.5 18.4596 2.5 17.9993V16.3327C2.5 15.2276 2.93899 14.1678 3.72039 13.3864Z" fill="black"/>
<path fill-rule="evenodd" clip-rule="evenodd" d="M10.0007 3.83268C8.61994 3.83268 7.50065 4.95197 7.50065 6.33268C7.50065 7.71339 8.61994 8.83268 10.0007 8.83268C11.3814 8.83268 12.5007 7.71339 12.5007 6.33268C12.5007 4.95197 11.3814 3.83268 10.0007 3.83268ZM5.83398 6.33268C5.83398 4.0315 7.69946 2.16602 10.0007 2.16602C12.3018 2.16602 14.1673 4.0315 14.1673 6.33268C14.1673 8.63387 12.3018 10.4993 10.0007 10.4993C7.69946 10.4993 5.83398 8.63387 5.83398 6.33268Z" fill="black"/>
</svg>
