<svg width="80" height="80" viewBox="0 0 80 80" fill="none" xmlns="http://www.w3.org/2000/svg">
<g clip-path="url(#clip0_1_5805)">
<path d="M68.3016 11.7102C52.7036 -3.88777 27.3157 -3.88777 11.7178 11.7102C4.16207 19.2689 0 29.3163 0 40.002C0 50.6878 4.16207 60.7352 11.7178 68.2909C19.5183 76.0914 29.764 79.9901 40.0096 79.9901C50.2552 79.9901 60.5011 76.0914 68.3014 68.2909C83.8994 52.6929 83.8994 27.3111 68.3016 11.7102ZM63.9194 63.9087C50.7356 77.0924 29.2836 77.0924 16.0998 63.9087C9.71572 57.5245 6.19818 49.0329 6.19818 40.002C6.19818 30.9712 9.71572 22.4795 16.0998 16.0923C29.2836 2.90854 50.7356 2.91167 63.9194 16.0923C77.1 29.276 77.1 50.7281 63.9194 63.9087Z" fill="black"/>
<path d="M53.3657 48.5689L44.592 39.8077L53.3657 31.0465C54.5743 29.8379 54.5743 27.8762 53.3688 26.6643C52.1571 25.4494 50.1954 25.4525 48.9836 26.6611L40.2039 35.4286L31.4241 26.6611C30.2123 25.4525 28.2506 25.4494 27.0389 26.6643C25.8303 27.876 25.8303 29.8377 27.042 31.0465L35.8157 39.8077L27.042 48.5689C25.8303 49.7775 25.8303 51.7392 27.0389 52.9511C27.6433 53.5584 28.4397 53.8591 29.2331 53.8591C30.0266 53.8591 30.8199 53.5553 31.4242 52.9541L40.204 44.1866L48.9838 52.9541C49.5882 53.5584 50.3814 53.8591 51.1749 53.8591C51.9683 53.8591 52.7648 53.5553 53.3691 52.9511C54.5774 51.7392 54.5774 49.7775 53.3657 48.5689Z" fill="black"/>
</g>
<defs>
<clipPath id="clip0_1_5805">
<rect width="80" height="80" fill="white"/>
</clipPath>
</defs>
</svg>
