<svg width="80" height="80" viewBox="0 0 80 80" fill="none" xmlns="http://www.w3.org/2000/svg">
<path d="M51.0337 28.9844C49.9989 28.9844 49.1602 29.8231 49.1602 30.8579V66.2676C49.1602 67.3017 49.9989 68.1412 51.0337 68.1412C52.0685 68.1412 52.9072 67.3017 52.9072 66.2676V30.8579C52.9072 29.8231 52.0685 28.9844 51.0337 28.9844Z" fill="#FC4337"/>
<path d="M28.9282 28.9844C27.8934 28.9844 27.0547 29.8231 27.0547 30.8579V66.2676C27.0547 67.3017 27.8934 68.1412 28.9282 68.1412C29.9631 68.1412 30.8017 67.3017 30.8017 66.2676V30.8579C30.8017 29.8231 29.9631 28.9844 28.9282 28.9844Z" fill="#FC4337"/>
<path d="M12.8133 23.8168V69.9766C12.8133 72.7049 13.8138 75.2671 15.5614 77.1055C17.301 78.9491 19.722 79.9956 22.2556 80H57.7034C60.2378 79.9956 62.6587 78.9491 64.3976 77.1055C66.1453 75.2671 67.1457 72.7049 67.1457 69.9766V23.8168C70.6198 22.8946 72.8709 19.5384 72.4062 15.9736C71.9408 12.4095 68.9043 9.74334 65.3095 9.74261H55.7172V7.40069C55.7281 5.43129 54.9495 3.54019 53.5553 2.14895C52.1611 0.758441 50.2671 -0.0158545 48.2977 0.000246167H31.6613C29.6919 -0.0158545 27.7979 0.758441 26.4037 2.14895C25.0096 3.54019 24.2309 5.43129 24.2419 7.40069V9.74261H14.6495C11.0547 9.74334 8.01825 12.4095 7.5528 15.9736C7.08807 19.5384 9.33924 22.8946 12.8133 23.8168ZM57.7034 76.2529H22.2556C19.0523 76.2529 16.5604 73.5012 16.5604 69.9766V23.9814H63.3986V69.9766C63.3986 73.5012 60.9067 76.2529 57.7034 76.2529ZM27.9889 7.40069C27.9765 6.42514 28.36 5.48618 29.0523 4.79751C29.7439 4.10884 30.685 3.73047 31.6613 3.74731H48.2977C49.274 3.73047 50.2151 4.10884 50.9067 4.79751C51.5991 5.48545 51.9825 6.42514 51.9701 7.40069V9.74261H27.9889V7.40069ZM14.6495 13.4897H65.3095C67.1721 13.4897 68.6819 14.9995 68.6819 16.862C68.6819 18.7246 67.1721 20.2344 65.3095 20.2344H14.6495C12.787 20.2344 11.2772 18.7246 11.2772 16.862C11.2772 14.9995 12.787 13.4897 14.6495 13.4897Z" fill="#FC4337"/>
<path d="M39.9829 28.9844C38.9481 28.9844 38.1094 29.8231 38.1094 30.8579V66.2676C38.1094 67.3017 38.9481 68.1412 39.9829 68.1412C41.0177 68.1412 41.8564 67.3017 41.8564 66.2676V30.8579C41.8564 29.8231 41.0177 28.9844 39.9829 28.9844Z" fill="#FC4337"/>
</svg>
