<svg width="32" height="33" viewBox="0 0 32 33" fill="none" xmlns="http://www.w3.org/2000/svg">
<rect y="0.84375" width="32" height="32" rx="16" fill="#D9D9D9"/>
<path d="M20.2107 21.8972C20.6574 21.8972 21.0857 22.0746 21.4016 22.3905C21.7174 22.7063 21.8949 23.1347 21.8949 23.5814C21.8949 24.0281 21.7174 24.4565 21.4016 24.7723C21.0857 25.0882 20.6574 25.2656 20.2107 25.2656C19.764 25.2656 19.3356 25.0882 19.0198 24.7723C18.7039 24.4565 18.5265 24.0281 18.5265 23.5814C18.5265 23.1347 18.7039 22.7063 19.0198 22.3905C19.3356 22.0746 19.764 21.8972 20.2107 21.8972ZM20.2107 22.7393C19.9873 22.7393 19.7731 22.828 19.6152 22.986C19.4573 23.1439 19.3686 23.3581 19.3686 23.5814C19.3686 23.8048 19.4573 24.0189 19.6152 24.1769C19.7731 24.3348 19.9873 24.4235 20.2107 24.4235C20.434 24.4235 20.6482 24.3348 20.8061 24.1769C20.9641 24.0189 21.0528 23.8048 21.0528 23.5814C21.0528 23.3581 20.9641 23.1439 20.8061 22.986C20.6482 22.828 20.434 22.7393 20.2107 22.7393ZM12.6317 21.8972C13.0784 21.8972 13.5068 22.0746 13.8226 22.3905C14.1385 22.7063 14.3159 23.1347 14.3159 23.5814C14.3159 24.0281 14.1385 24.4565 13.8226 24.7723C13.5068 25.0882 13.0784 25.2656 12.6317 25.2656C12.1851 25.2656 11.7567 25.0882 11.4408 24.7723C11.125 24.4565 10.9475 24.0281 10.9475 23.5814C10.9475 23.1347 11.125 22.7063 11.4408 22.3905C11.7567 22.0746 12.1851 21.8972 12.6317 21.8972ZM12.6317 22.7393C12.4084 22.7393 12.1942 22.828 12.0363 22.986C11.8783 23.1439 11.7896 23.3581 11.7896 23.5814C11.7896 23.8048 11.8783 24.0189 12.0363 24.1769C12.1942 24.3348 12.4084 24.4235 12.6317 24.4235C12.8551 24.4235 13.0693 24.3348 13.2272 24.1769C13.3851 24.0189 13.4738 23.8048 13.4738 23.5814C13.4738 23.3581 13.3851 23.1439 13.2272 22.986C13.0693 22.828 12.8551 22.7393 12.6317 22.7393ZM21.8949 11.7919H10.3328L12.4802 16.8446H19.3686C19.6465 16.8446 19.8907 16.7098 20.0423 16.5077L22.5686 13.1393C22.678 12.9962 22.737 12.8193 22.737 12.634C22.737 12.4107 22.6483 12.1965 22.4903 12.0386C22.3324 11.8807 22.1182 11.7919 21.8949 11.7919ZM19.3686 17.6867H12.5223L11.8738 19.0004L11.7896 19.3709C11.7896 19.5942 11.8783 19.8084 12.0363 19.9663C12.1942 20.1243 12.4084 20.213 12.6317 20.213H21.8949V21.0551H12.6317C12.1851 21.0551 11.7567 20.8777 11.4408 20.5618C11.125 20.246 10.9475 19.8176 10.9475 19.3709C10.9473 19.0852 11.0197 18.8041 11.158 18.554L11.7644 17.3162L8.70752 10.1077H7.5791V9.26562H9.26331L9.9791 10.9498H21.8949C22.3416 10.9498 22.77 11.1273 23.0858 11.4431C23.4017 11.759 23.5791 12.1874 23.5791 12.634C23.5791 13.0551 23.4359 13.4088 23.2002 13.6951L20.7496 16.9709C20.4465 17.4004 19.9412 17.6867 19.3686 17.6867Z" fill="white" stroke="white" stroke-width="0.3"/>
</svg>
