<svg width="32" height="32" viewBox="0 0 32 32" fill="none" xmlns="http://www.w3.org/2000/svg">
<rect width="32" height="32" rx="16" fill="#D9D9D9"/>
<path d="M16 12C16 12 16 12 16.76 11C17.64 9.84 18.94 9 20.5 9C22.99 9 25 11.01 25 13.5C25 14.43 24.72 15.29 24.24 16C23.43 17.21 16 25 16 25C16 25 8.57 17.21 7.76 16C7.28 15.29 7 14.43 7 13.5C7 11.01 9.01 9 11.5 9C13.06 9 14.37 9.84 15.24 11C16 12 16 12 16 12Z" fill="#FF0000"/>
<path d="M16 12C16 12 16 12 15.24 11C14.36 9.84 13.06 9 11.5 9C9.01 9 7 11.01 7 13.5C7 14.43 7.28 15.29 7.76 16C8.57 17.21 16 25 16 25M16 12C16 12 16 12 16.76 11C17.64 9.84 18.94 9 20.5 9C22.99 9 25 11.01 25 13.5C25 14.43 24.72 15.29 24.24 16C23.43 17.21 16 25 16 25" stroke="#FF0000" stroke-linecap="round" stroke-linejoin="round"/>
</svg>
