<svg width="50" height="50" viewBox="0 0 50 50" fill="none" xmlns="http://www.w3.org/2000/svg">
<rect x="0.5" y="0.5" width="49" height="49" stroke="black"/>
<path d="M25 20C25 20 25 20 24.24 19C23.36 17.84 22.06 17 20.5 17C18.01 17 16 19.01 16 21.5C16 22.43 16.28 23.29 16.76 24C17.57 25.21 25 33 25 33M25 20C25 20 25 20 25.76 19C26.64 17.84 27.94 17 29.5 17C31.99 17 34 19.01 34 21.5C34 22.43 33.72 23.29 33.24 24C32.43 25.21 25 33 25 33" stroke="black" stroke-width="2" stroke-linecap="round" stroke-linejoin="round"/>
</svg>
