<svg width="24" height="24" viewBox="0 0 24 24" fill="none" xmlns="http://www.w3.org/2000/svg">
<path d="M12.0049 22.0039C6.48188 22.0039 2.00488 17.5269 2.00488 12.0039C2.00488 6.48091 6.48188 2.00391 12.0049 2.00391C17.5279 2.00391 22.0049 6.48091 22.0049 12.0039C22.0049 17.5269 17.5279 22.0039 12.0049 22.0039ZM12.0049 20.0039C14.1266 20.0039 16.1614 19.1611 17.6617 17.6608C19.162 16.1605 20.0049 14.1256 20.0049 12.0039C20.0049 9.88217 19.162 7.84734 17.6617 6.34705C16.1614 4.84676 14.1266 4.00391 12.0049 4.00391C9.88315 4.00391 7.84832 4.84676 6.34803 6.34705C4.84774 7.84734 4.00488 9.88217 4.00488 12.0039C4.00488 14.1256 4.84774 16.1605 6.34803 17.6608C7.84832 19.1611 9.88315 20.0039 12.0049 20.0039ZM7.00488 13.0039H16.0049V15.0039H12.0049V18.0039L7.00488 13.0039ZM12.0049 9.00391V6.00391L17.0049 11.0039H8.00488V9.00391H12.0049Z" fill="black"/>
</svg>
