<svg width="24" height="24" viewBox="0 0 24 24" fill="none" xmlns="http://www.w3.org/2000/svg">
<g clip-path="url(#clip0_50_8423)">
<path d="M22.9599 7.40492L16.5959 1.04092C16.5022 0.947189 16.375 0.894531 16.2424 0.894531C16.1099 0.894531 15.9827 0.947189 15.8889 1.04092L1.03995 15.8899C0.946212 15.9837 0.893555 16.1108 0.893555 16.2434C0.893555 16.376 0.946212 16.5032 1.03995 16.5969L7.40395 22.9609C7.49771 23.0547 7.62487 23.1073 7.75745 23.1073C7.89003 23.1073 8.01718 23.0547 8.11095 22.9609L11.2909 19.7809L11.2929 19.7789L14.1199 16.9519H14.1209V16.9499L16.9499 14.1229L19.7779 11.2939L22.9599 8.11192C23.0537 8.01816 23.1063 7.89101 23.1063 7.75842C23.1063 7.62584 23.0537 7.49869 22.9599 7.40492ZM19.4249 10.2329L17.6569 8.46592L17.6499 8.45892C17.5548 8.3683 17.4279 8.31876 17.2965 8.321C17.1652 8.32324 17.04 8.37708 16.948 8.47089C16.856 8.5647 16.8047 8.69093 16.805 8.8223C16.8054 8.95367 16.8575 9.07962 16.9499 9.17292L18.7179 10.9399L16.5959 13.0619L13.4139 9.87992L13.4069 9.87292C13.3118 9.7823 13.1849 9.73276 13.0535 9.735C12.9222 9.73724 12.797 9.79108 12.705 9.88489C12.613 9.9787 12.5617 10.1049 12.562 10.2363C12.5624 10.3677 12.6145 10.4936 12.7069 10.5869L15.8889 13.7689L13.7679 15.8899L11.9999 14.1219C11.9056 14.0308 11.7793 13.9804 11.6482 13.9816C11.5171 13.9827 11.3917 14.0353 11.299 14.128C11.2063 14.2207 11.1538 14.3461 11.1526 14.4772C11.1515 14.6083 11.2019 14.7346 11.2929 14.8289L13.0599 16.5969L10.9399 18.7189L7.75695 15.5359L7.74995 15.5289C7.7033 15.4819 7.64776 15.4445 7.58657 15.4191C7.52537 15.3937 7.45973 15.3807 7.39347 15.3809C7.32721 15.3811 7.26164 15.3945 7.20059 15.4202C7.13953 15.4459 7.0842 15.4836 7.03781 15.5309C6.99142 15.5782 6.9549 15.6343 6.93037 15.6958C6.90584 15.7574 6.89379 15.8232 6.89492 15.8894C6.89605 15.9557 6.91034 16.0211 6.93695 16.0817C6.96356 16.1424 7.00197 16.1972 7.04995 16.2429L10.2319 19.4259L7.75695 21.8999L2.10095 16.2429L16.2419 2.10192L21.8999 7.75892L19.4249 10.2329Z" fill="black"/>
</g>
<defs>
<clipPath id="clip0_50_8423">
<rect width="24" height="24" fill="white"/>
</clipPath>
</defs>
</svg>
